<svg xmlns="http://www.w3.org/2000/svg" width="138.672" height="35.034" viewBox="0 0 138.672 35.034"><path d="M588.752,434.974a15.338,15.338,0,0,0-8.5-4.693c-.444-.111-.891-.2-1.336-.273l-.05-.008a.149.149,0,0,0-.1.043.143.143,0,0,0-.027.039.156.156,0,0,0-.015.052v9.346h0a11.847,11.847,0,0,0-11.258,3.228q-.161.172-.317.351a12.159,12.159,0,0,0-1.629,2.4,13.062,13.062,0,0,0,3.6,15.882,15.919,15.919,0,0,0,6.156,3.123,16.69,16.69,0,0,0,9.859-.378,15.879,15.879,0,0,0,4.145-2.155l.042-.03a.146.146,0,0,0,.007-.195l-4.633-4.633-1.952-1.952h0l-.2-.2a.144.144,0,0,0-.079-.032h-.013a.147.147,0,0,0-.069.018h0l-.031.023a8.35,8.35,0,1,1-2.13-14.7l.044.015h.028a8.357,8.357,0,0,1,5.46,6.613c.011.069.021.139.029.208s.017.135.024.2c0,.011,0,.022,0,.034.007.061.013.122.016.184s.009.113.011.17c.009.156.013.314.013.472,0,.056,0,.113,0,.169,0,.025,0,.05,0,.075s0,.045,0,.067a8.333,8.333,0,0,1-1.3,4.163h0l-.029.044s0,0,0,0a.075.075,0,0,0-.006.018s0,0,0,0a.125.125,0,0,0-.005.036.145.145,0,0,0,.016.065l.01.017h0l.037.037h0l2.141,2.141,1.233,1.232.039.04.018.01a.15.15,0,0,0,.128,0h0l.052-.043a12.531,12.531,0,0,0,1.6-1.616l0,0a13.615,13.615,0,0,0,3.046-8.9c0-.1,0-.191,0-.287a15.311,15.311,0,0,0-4.072-10.417Z" transform="translate(-564.181 -430)" fill="#fff"/><path d="M796.695,492.78c-5.959,0-9.067,3.026-9.072,7.035,0,.062,0,.124,0,.187,0,.177.015.351.031.522a.236.236,0,0,1,0,.033c.329,3.342,2.946,5.866,7.69,6.249l.216.016c.041,0,.083,0,.126.008.324.02.66.029,1,.029s.679-.01,1-.029c.043,0,.085-.006.126-.008l.216-.016a11.579,11.579,0,0,0,3.279-.717l2.108,2.108,1.638-1.638-1.66-1.66a6.24,6.24,0,0,0,2.323-4.343c.007-.067.012-.136.018-.206.008-.115.013-.231.016-.349,0-.062,0-.124,0-.187C805.76,495.806,802.652,492.78,796.695,492.78Zm2.755,11.439a11.027,11.027,0,0,1-2.755.315c-4.439,0-6.543-1.968-6.543-4.709,0-2.759,2.1-4.728,6.543-4.728s6.522,1.968,6.522,4.728a4.108,4.108,0,0,1-1.546,3.34l-2.422-2.422-1.638,1.638Z" transform="translate(-748.482 -481.783)" fill="#fff"/><rect width="2.49" height="2.316" transform="translate(59.385 11.133)" fill="#fff"/><rect width="2.49" height="10.035" transform="translate(59.385 14.761)" fill="#fff"/><path d="M940.74,512.064a11.875,11.875,0,0,0-4.844,1.042l-.019-.019-.077-.637h-2.393v10.036H935.9v-7.372a18.742,18.742,0,0,1,4.612-.733c3.107,0,3.976,1.274,3.976,2.991v5.114h2.49v-5.134C946.974,514.322,945.2,512.064,940.74,512.064Z" transform="translate(-868.729 -497.689)" fill="#fff"/><path d="M1029.351,497.742l-2.49.251v9.4c0,2.663,1.158,3.57,3.184,3.57a12.2,12.2,0,0,0,2.335-.29v-1.91c-.656.058-1.2.116-1.621.116-1,0-1.409-.367-1.409-1.486v-4.786h3.03V500.54h-3.03Z" transform="translate(-945.813 -485.876)" fill="#fff"/><path d="M1077.148,512.065c-4.574,0-6.774,2.451-6.774,5.423,0,3.416,2.528,5.288,7.642,5.288a20.15,20.15,0,0,0,5.848-.81l-.463-2.181a22.613,22.613,0,0,1-5.462.676c-2.991,0-4.477-.676-4.883-2.065h10.653C1085.041,514.188,1081.548,512.065,1077.148,512.065Zm4.091,4.554H1073c.328-1.351,1.486-2.3,4.284-2.3C1079.908,514.323,1081.567,515.095,1081.239,516.619Z" transform="translate(-981.704 -497.69)" fill="#fff"/><path d="M1165.781,516.329c-2.181-.019-4.091-.019-4.091-.926,0-.868,1.6-1.023,3.512-1.023a32.368,32.368,0,0,1,6.234.56l.386-2.3a36.622,36.622,0,0,0-6.175-.579c-2.3,0-6.5.174-6.5,3.319,0,2.779,3.647,3.03,6.716,3.088,2.3.039,4.323,0,4.323.868,0,1.061-3.319,1.119-4.5,1.119a26.61,26.61,0,0,1-6.311-.811l-.5,2.277a24.15,24.15,0,0,0,6.523.849c2.026,0,7.314-.174,7.314-3.454C1172.709,516.484,1168.907,516.368,1165.781,516.329Z" transform="translate(-1054.699 -497.689)" fill="#fff"/><path d="M1254.578,516.329c-2.181-.019-4.091-.019-4.091-.926,0-.868,1.6-1.023,3.512-1.023a32.366,32.366,0,0,1,6.234.56l.386-2.3a36.623,36.623,0,0,0-6.176-.579c-2.3,0-6.5.174-6.5,3.319,0,2.779,3.647,3.03,6.716,3.088,2.3.039,4.323,0,4.323.868,0,1.061-3.319,1.119-4.5,1.119a26.608,26.608,0,0,1-6.311-.811l-.5,2.277a24.15,24.15,0,0,0,6.523.849c2.026,0,7.314-.174,7.314-3.454C1261.506,516.484,1257.7,516.368,1254.578,516.329Z" transform="translate(-1127.942 -497.689)" fill="#fff"/><path d="M1338.933,563.766h.56v1.212h.2v-1.212h.543l.016-.189h-1.306Z" transform="translate(-1203.219 -540.178)" fill="#fff"/><path d="M1348.191,563.577l-.51,1.147-.511-1.147h-.271v1.4h.205v-1.052l.464,1.052h.224l.466-1.056v1.056h.2v-1.4Z" transform="translate(-1209.79 -540.178)" fill="#fff"/></svg>