<svg xmlns="http://www.w3.org/2000/svg" width="35.034" height="35.034" viewBox="0 0 35.034 35.034">
    <path
        d="M588.752,434.974a15.338,15.338,0,0,0-8.5-4.693c-.444-.111-.891-.2-1.336-.273l-.05-.008a.149.149,0,0,0-.1.043.143.143,0,0,0-.027.039.156.156,0,0,0-.015.052v9.346h0a11.847,11.847,0,0,0-11.258,3.228q-.161.172-.317.351a12.159,12.159,0,0,0-1.629,2.4,13.062,13.062,0,0,0,3.6,15.882,15.919,15.919,0,0,0,6.156,3.123,16.69,16.69,0,0,0,9.859-.378,15.879,15.879,0,0,0,4.145-2.155l.042-.03a.146.146,0,0,0,.007-.195l-4.633-4.633-1.952-1.952h0l-.2-.2a.144.144,0,0,0-.079-.032h-.013a.147.147,0,0,0-.069.018h0l-.031.023a8.35,8.35,0,1,1-2.13-14.7l.044.015h.028a8.357,8.357,0,0,1,5.46,6.613c.011.069.021.139.029.208s.017.135.024.2c0,.011,0,.022,0,.034.007.061.013.122.016.184s.009.113.011.17c.009.156.013.314.013.472,0,.056,0,.113,0,.169,0,.025,0,.05,0,.075s0,.045,0,.067a8.333,8.333,0,0,1-1.3,4.163h0l-.029.044s0,0,0,0a.075.075,0,0,0-.006.018s0,0,0,0a.125.125,0,0,0-.005.036.145.145,0,0,0,.016.065l.01.017h0l.037.037h0l2.141,2.141,1.233,1.232.039.04.018.01a.15.15,0,0,0,.128,0h0l.052-.043a12.531,12.531,0,0,0,1.6-1.616l0,0a13.615,13.615,0,0,0,3.046-8.9c0-.1,0-.191,0-.287a15.311,15.311,0,0,0-4.072-10.417Z"
        transform="translate(-563.181 -430)" fill="#006437" />
</svg>