<svg xmlns="http://www.w3.org/2000/svg" width="45" height="45" viewBox="0 0 45 45">
  <g id="logo-seventh-branco" transform="translate(-330.643 -623.132)">
    <g id="Grupo_5" data-name="Grupo 5" transform="translate(330.642 623.131)">
      <path id="Caminho_49" data-name="Caminho 49" d="M105.21,18.348l-6.52,1.283L94.2,14.607l1.283-.107,3.42,3.741h.107l5.238-.855Z" transform="translate(-76.35 0.999)" fill="#006437"/>
      <path id="Caminho_50" data-name="Caminho 50" d="M93.914,14.9,98.4,19.924l-2.352,6.2-.534-.748h0l1.817-5.558h-.107V19.71L93.7,15.755Z" transform="translate(-76.384 1.026)" fill="#006437"/>
      <path id="Caminho_51" data-name="Caminho 51" d="M105.172,18.6l-.428.855L99.4,20.524h0v.107h0l-1.924,5.131-1.176.321,2.352-6.306Z" transform="translate(-76.205 1.281)" fill="#006437"/>
      <path id="Caminho_52" data-name="Caminho 52" d="M101.344,24.9l-2.031,5.238h0v.107L96,30.993l1.924-5.238h0Z" transform="translate(-76.226 1.715)" fill="#006437"/>
      <path id="Caminho_53" data-name="Caminho 53" d="M110.127,18.7l-1.283,2.779L103.5,22.655l1.069-2.779Z" transform="translate(-75.709 1.288)" fill="#006437"/>
      <path id="Caminho_54" data-name="Caminho 54" d="M123.353,18.8,113.305,36.437,94.6,43.7l5.131-12.72h.107l6.627-1.5h0v-.107h0l3.314-7.482h0Z" transform="translate(-76.322 1.295)" fill="#006437"/>
      <path id="Caminho_55" data-name="Caminho 55" d="M108.892,21.8l-3.1,7.055L99.7,30.244l2.565-6.948Z" transform="translate(-75.971 1.502)" fill="#006437"/>
      <path id="Caminho_56" data-name="Caminho 56" d="M104.52,19.9l-1.176,2.886L102.169,23h-.107v.107h0l-.641,1.6L98,25.565l1.6-4.7Z" transform="translate(-76.088 1.371)" fill="#006437"/>
      <path id="Caminho_57" data-name="Caminho 57" d="M93.548,16.2l3.314,3.634-1.6,5.024-2.031-2.672h-.107l.641-1.817h0v-.107h0L92.8,19.193v-.107Z" transform="translate(-76.446 1.116)" fill="#006437"/>
      <path id="Caminho_58" data-name="Caminho 58" d="M93.11,22.3l2.031,2.672h0l-1.71,5.558L91.4,27.858h0Z" transform="translate(-76.543 1.536)" fill="#006437"/>
      <path id="Caminho_59" data-name="Caminho 59" d="M91.823,29.036v.107l-3.955,12.72L77.5,25.081,80.707,5.2l8.444,10.048-1.817,7.7h0v.107h0Z" transform="translate(-77.5 0.358)" fill="#006437"/>
      <path id="Caminho_60" data-name="Caminho 60" d="M92.865,19.6l.748.855-.428,1.39v.107h-.107v.321h-.107v.107h0v.107l-1.6,5.344L87.2,22.268,88.91,15l3.955,4.6Z" transform="translate(-76.832 1.033)" fill="#006437"/>
      <path id="Caminho_61" data-name="Caminho 61" d="M89.648,11.7,93.5,16.082l-.855,2.993L88.9,14.693Z" transform="translate(-76.715 0.806)" fill="#006437"/>
      <path id="Caminho_62" data-name="Caminho 62" d="M101.351,14.534l2.352,2.458-4.7.855-3.1-3.42L99.748,14l.641.641h.107Z" transform="translate(-76.233 0.964)" fill="#006437"/>
      <path id="Caminho_63" data-name="Caminho 63" d="M109.724,15.938l-5.879.962L101.6,14.548l5.665-.748Z" transform="translate(-75.84 0.951)" fill="#006437"/>
      <path id="Caminho_64" data-name="Caminho 64" d="M122.087,12.185l-13.575,2.031-5.451-5.131h-.107l-6.948.748L86.6.107,106.588,0Z" transform="translate(-76.873)" fill="#006437"/>
      <path id="Caminho_65" data-name="Caminho 65" d="M107.237,13.71l-6.627.855L95.8,9.648l6.413-.748Z" transform="translate(-76.239 0.613)" fill="#006437"/>
      <path id="Caminho_66" data-name="Caminho 66" d="M95.434,9.6,99.6,13.876l-3.848.428L91.8,9.921Z" transform="translate(-76.515 0.661)" fill="#006437"/>
    </g>
  </g>
</svg>
